<svg width="20" height="20" viewBox="0 0 20 20" fill="none" xmlns="http://www.w3.org/2000/svg">
<path d="M4.22422 16.9231C4.29203 16.8106 4.38134 16.7126 4.48705 16.6346C4.59276 16.5566 4.71279 16.5002 4.84029 16.4687C4.96779 16.4371 5.10026 16.4309 5.23014 16.4506C5.36002 16.4702 5.48475 16.5152 5.59722 16.5831C6.29092 17.0036 7.04453 17.3162 7.83222 17.5101C7.96229 17.5391 8.08524 17.5938 8.19386 17.671C8.30249 17.7482 8.39458 17.8463 8.46474 17.9596C8.5349 18.0729 8.58171 18.1991 8.60242 18.3307C8.62313 18.4624 8.61731 18.5968 8.58532 18.7262C8.55333 18.8555 8.49581 18.9772 8.41613 19.084C8.33646 19.1908 8.23624 19.2807 8.12136 19.3482C8.00648 19.4157 7.87926 19.4596 7.74718 19.4773C7.6151 19.495 7.48081 19.4861 7.35222 19.4511C6.36947 19.2094 5.42909 18.82 4.56322 18.2961C4.45073 18.2283 4.35269 18.139 4.27472 18.0333C4.19675 17.9276 4.14037 17.8075 4.10879 17.68C4.07722 17.5525 4.07107 17.4201 4.09071 17.2902C4.11034 17.1603 4.15637 17.0356 4.22422 16.9231ZM13.8852 16.5831C14.1124 16.4461 14.3847 16.405 14.6421 16.4687C14.8996 16.5325 15.1212 16.6959 15.2582 16.9231C15.3952 17.1503 15.4363 17.4225 15.3726 17.68C15.3088 17.9375 15.1454 18.1591 14.9182 18.2961C14.052 18.8201 13.1113 19.2095 12.1282 19.4511C11.8707 19.5146 11.5985 19.4732 11.3715 19.336C11.1445 19.1989 10.9812 18.9771 10.9177 18.7196C10.8542 18.4621 10.8956 18.1899 11.0328 17.9628C11.17 17.7358 11.3917 17.5726 11.6492 17.5091C12.4372 17.3156 13.1912 17.0034 13.8852 16.5831ZM0.760224 10.9181C1.01747 10.8547 1.28938 10.8959 1.51625 11.0328C1.74312 11.1696 1.90639 11.3909 1.97022 11.6481C2.16371 12.4361 2.47595 13.19 2.89622 13.8841C3.02179 14.1105 3.05468 14.3767 2.98799 14.6268C2.92129 14.8769 2.7602 15.0915 2.5386 15.2252C2.31699 15.359 2.05214 15.4017 1.79974 15.3442C1.54734 15.2867 1.32706 15.1336 1.18522 14.9171C0.660872 14.051 0.271095 13.1103 0.0292236 12.1271C-0.0342208 11.8698 0.00701992 11.5979 0.14389 11.3711C0.28076 11.1442 0.50207 10.9809 0.759223 10.9171M17.5092 11.6471C17.5729 11.3894 17.7363 11.1676 17.9635 11.0304C18.1907 10.8933 18.4631 10.8519 18.7207 10.9156C18.9784 10.9792 19.2002 11.1426 19.3374 11.3698C19.4746 11.597 19.5159 11.8694 19.4522 12.1271C19.3322 12.6118 19.1742 13.0908 18.9782 13.5641C18.7816 14.0381 18.5546 14.4888 18.2972 14.9161C18.1601 15.1433 17.9384 15.3066 17.6808 15.3703C17.4232 15.434 17.1509 15.3927 16.9237 15.2556C16.6966 15.1185 16.5332 14.8967 16.4695 14.6392C16.4058 14.3816 16.4471 14.1093 16.5842 13.8821C17.0044 13.1883 17.3156 12.4347 17.5092 11.6471ZM6.20622 6.20309C6.59622 5.81309 7.23122 5.81309 7.62122 6.20309L9.74122 8.32409L11.8622 6.20409C11.9545 6.10858 12.0648 6.0324 12.1868 5.97999C12.3088 5.92758 12.44 5.9 12.5728 5.89884C12.7056 5.89769 12.8373 5.92299 12.9602 5.97327C13.0831 6.02355 13.1947 6.09781 13.2886 6.1917C13.3825 6.28559 13.4568 6.39724 13.507 6.52014C13.5573 6.64304 13.5826 6.77472 13.5815 6.9075C13.5803 7.04027 13.5527 7.17149 13.5003 7.2935C13.4479 7.4155 13.3717 7.52585 13.2762 7.61809L11.1562 9.73909L13.2762 11.8611C13.3717 11.9533 13.4479 12.0637 13.5003 12.1857C13.5527 12.3077 13.5803 12.4389 13.5815 12.5717C13.5826 12.7045 13.5573 12.8362 13.507 12.959C13.4568 13.0819 13.3825 13.1936 13.2886 13.2875C13.1947 13.3814 13.0831 13.4556 12.9602 13.5059C12.8373 13.5562 12.7056 13.5815 12.5728 13.5803C12.44 13.5792 12.3088 13.5516 12.1868 13.4992C12.0648 13.4468 11.9545 13.3706 11.8622 13.2751L9.74222 11.1551L7.62022 13.2751C7.4303 13.4506 7.17985 13.5457 6.92134 13.5406C6.66282 13.5356 6.41629 13.4307 6.2334 13.2479C6.0505 13.0651 5.94542 12.8187 5.94017 12.5602C5.93491 12.3017 6.0299 12.0511 6.20522 11.8611L8.32622 9.73909L6.20522 7.61909C6.11225 7.52622 6.03849 7.41593 5.98816 7.29453C5.93784 7.17314 5.91194 7.04301 5.91194 6.91159C5.91194 6.78018 5.93784 6.65005 5.98816 6.52865C6.03849 6.40726 6.11225 6.29697 6.20522 6.20409M1.18522 4.56209C1.25107 4.44568 1.3396 4.34366 1.44558 4.26206C1.55156 4.18047 1.67283 4.12097 1.80221 4.08707C1.93159 4.05318 2.06646 4.04558 2.19883 4.06473C2.33119 4.08388 2.45838 4.1294 2.57285 4.19857C2.68731 4.26775 2.78674 4.35918 2.86525 4.46747C2.94375 4.57575 2.99974 4.69869 3.02989 4.82899C3.06004 4.95929 3.06375 5.09432 3.04079 5.22609C3.01783 5.35785 2.96867 5.48367 2.89622 5.59609C2.47639 6.28991 2.1645 7.04352 1.97122 7.83109C1.90757 8.08862 1.74423 8.31031 1.51712 8.4474C1.29001 8.58449 1.01775 8.62575 0.760224 8.56209C0.502698 8.49844 0.281006 8.3351 0.143917 8.10799C0.00682811 7.88088 -0.0344284 7.60862 0.0292236 7.3511C0.271191 6.36828 0.660965 5.4279 1.18522 4.56209ZM16.9252 4.22209C17.0377 4.15424 17.1624 4.10921 17.2923 4.08958C17.4222 4.06995 17.5547 4.07609 17.6822 4.10766C17.8097 4.13924 17.9297 4.19562 18.0354 4.27359C18.1411 4.35157 18.2304 4.4496 18.2982 4.56209C18.8221 5.42796 19.2116 6.36834 19.4532 7.3511C19.5169 7.60862 19.4756 7.88088 19.3385 8.10799C19.2014 8.3351 18.9797 8.49844 18.7222 8.56209C18.4647 8.62575 18.1924 8.58449 17.9653 8.4474C17.7382 8.31031 17.5749 8.08862 17.5112 7.83109C17.3176 7.04346 17.0054 6.28985 16.5852 5.59609C16.5174 5.48362 16.4723 5.35889 16.4527 5.22901C16.4331 5.09913 16.4392 4.96666 16.4708 4.83916C16.5024 4.71166 16.5588 4.59163 16.6367 4.48592C16.7147 4.38021 16.8127 4.29091 16.9252 4.22309M10.9202 0.759095C10.9841 0.501942 11.1473 0.280632 11.3742 0.143762C11.6011 0.00689146 11.873 -0.0343496 12.1302 0.0290949C13.113 0.270749 14.0534 0.660185 14.9192 1.18409C15.138 1.32505 15.2931 1.54572 15.3518 1.79925C15.4105 2.05278 15.368 2.31919 15.2334 2.5419C15.0988 2.76462 14.8827 2.9261 14.631 2.99204C14.3792 3.05799 14.1117 3.02321 13.8852 2.8951C13.1914 2.47527 12.4378 2.16337 11.6502 1.97009C11.3929 1.90628 11.1714 1.74285 11.0345 1.51575C10.8976 1.28866 10.8565 1.01649 10.9202 0.759095ZM7.35222 0.0290949C7.60538 -0.0232287 7.86897 0.0245187 8.08769 0.162321C8.30641 0.300124 8.46327 0.517273 8.52536 0.768217C8.58744 1.01916 8.54994 1.2844 8.42071 1.50829C8.29148 1.73218 8.08057 1.89733 7.83222 1.96909C7.04459 2.16268 6.29098 2.47492 5.59722 2.8951C5.37072 3.02321 5.1032 3.05799 4.85147 2.99204C4.59974 2.9261 4.38363 2.76462 4.24904 2.5419C4.11444 2.31919 4.07197 2.05278 4.13063 1.79925C4.1893 1.54572 4.34448 1.32505 4.56322 1.18409C5.42903 0.659836 6.36941 0.271062 7.35222 0.0290949Z" fill="#F3A218"/>
</svg>
