<svg width="22" height="22" viewBox="0 0 22 22" fill="none" xmlns="http://www.w3.org/2000/svg">
<path fill-rule="evenodd" clip-rule="evenodd" d="M16.9531 3.48428C18.8735 4.60353 20.2246 6.87595 20.1651 9.52695C20.0908 12.8361 17.5159 15.7548 13.126 18.3618C12.4751 18.7486 11.7895 19.25 11.0002 19.25C10.2256 19.25 9.51064 18.7394 8.87356 18.3609C4.48547 15.7548 1.90964 12.8352 1.83539 9.52695C1.77581 6.87595 3.12697 4.60445 5.04739 3.48428C6.84406 2.43836 9.10089 2.43195 11.0002 3.97653C12.8996 2.43195 15.1564 2.43745 16.9531 3.48428ZM16.03 5.0692C14.7521 4.32486 13.1553 4.35145 11.773 5.75028C11.6718 5.85222 11.5514 5.93312 11.4187 5.98833C11.2861 6.04354 11.1439 6.07196 11.0002 6.07196C10.8566 6.07196 10.7143 6.04354 10.5817 5.98833C10.4491 5.93312 10.3287 5.85222 10.2275 5.75028C8.84514 4.35145 7.24831 4.32486 5.97047 5.0692C4.64681 5.84103 3.62381 7.4782 3.66872 9.48753C3.72006 11.7893 5.53872 14.2487 9.81039 16.786C10.1844 17.0088 10.5749 17.2939 11.0002 17.4121C11.4256 17.2939 11.8161 17.0088 12.1901 16.786C16.4617 14.2487 18.2804 11.7902 18.3317 9.48661C18.3776 7.47911 17.3536 5.84103 16.03 5.0692Z" fill="#1F1F1F"/>
</svg>
