<svg width="17" height="14" viewBox="0 0 17 14" fill="none" xmlns="http://www.w3.org/2000/svg">
<path fill-rule="evenodd" clip-rule="evenodd" d="M0 2.5C0 1.83696 0.263392 1.20107 0.732233 0.732233C1.20107 0.263392 1.83696 0 2.5 0H14.1667C14.8297 0 15.4656 0.263392 15.9344 0.732233C16.4033 1.20107 16.6667 1.83696 16.6667 2.5V10.8333C16.6667 11.4964 16.4033 12.1323 15.9344 12.6011C15.4656 13.0699 14.8297 13.3333 14.1667 13.3333H2.5C1.83696 13.3333 1.20107 13.0699 0.732233 12.6011C0.263392 12.1323 0 11.4964 0 10.8333V2.5ZM2.5 2.5C2.27899 2.5 2.06702 2.5878 1.91074 2.74408C1.75446 2.90036 1.66667 3.11232 1.66667 3.33333C1.66667 3.55435 1.75446 3.76631 1.91074 3.92259C2.06702 4.07887 2.27899 4.16667 2.5 4.16667H14.1667C14.3877 4.16667 14.5996 4.07887 14.7559 3.92259C14.9122 3.76631 15 3.55435 15 3.33333C15 3.11232 14.9122 2.90036 14.7559 2.74408C14.5996 2.5878 14.3877 2.5 14.1667 2.5H2.5ZM1.66667 7.5C1.66667 7.27899 1.75446 7.06702 1.91074 6.91074C2.06702 6.75446 2.27899 6.66667 2.5 6.66667H5.83333C5.85667 6.66667 5.88 6.6675 5.90333 6.67C6.08741 6.6539 6.27162 6.69943 6.427 6.79945C6.58237 6.89946 6.7001 7.04828 6.76167 7.2225C6.8768 7.54729 7.08973 7.82843 7.37117 8.02726C7.65261 8.22609 7.98874 8.33285 8.33333 8.33285C8.67792 8.33285 9.01405 8.22609 9.29549 8.02726C9.57693 7.82843 9.78986 7.54729 9.905 7.2225C9.96657 7.04828 10.0843 6.89946 10.2397 6.79945C10.395 6.69943 10.5793 6.6539 10.7633 6.67C10.7858 6.66667 10.81 6.66667 10.8333 6.66667H14.1667C14.3877 6.66667 14.5996 6.75446 14.7559 6.91074C14.9122 7.06702 15 7.27899 15 7.5C15 7.72101 14.9122 7.93297 14.7559 8.08926C14.5996 8.24554 14.3877 8.33333 14.1667 8.33333H11.22C10.9276 8.84017 10.5068 9.26104 10.0001 9.55362C9.49334 9.8462 8.91848 10.0002 8.33333 10C7.74805 10.0003 7.17302 9.84641 6.66611 9.55383C6.15921 9.26124 5.73833 8.84029 5.44583 8.33333H2.5C2.27899 8.33333 2.06702 8.24554 1.91074 8.08926C1.75446 7.93297 1.66667 7.72101 1.66667 7.5Z" fill="#1F1F1F"/>
</svg>
